<?xml version="1.0" encoding="UTF-8"?>
<svg version="1.1" xmlns="http://www.w3.org/2000/svg" width="820" height="200">
<path d="M0 0 C7.54718714 0.62893226 7.54718714 0.62893226 9.92578125 2.578125 C12.7232187 4.49576574 14.15361187 4.01593799 17.4375 3.4375 C22.62034672 2.81389545 22.62034672 2.81389545 26.1875 4.5625 C28.53956458 7.72562134 28.3745329 9.09986028 28 13 C26.99631199 15.60300434 25.95479061 17.99569705 24.71875 20.48046875 C24.38580933 21.17513748 24.05286865 21.86980621 23.70983887 22.58552551 C22.65078997 24.79164473 21.57653814 26.98986902 20.5 29.1875 C19.4255454 31.39674211 18.35453185 33.60749082 17.29016113 35.8216095 C16.62878406 37.19584742 15.96126357 38.56714932 15.2869873 39.93510437 C13.89143381 42.82123723 13 44.74979135 13 48 C14.98214165 45.54405205 16.96019753 43.08484507 18.9375 40.625 C19.50146484 39.92632812 20.06542969 39.22765625 20.64648438 38.5078125 C21.18466797 37.8375 21.72285156 37.1671875 22.27734375 36.4765625 C22.77484131 35.85861816 23.27233887 35.24067383 23.78491211 34.60400391 C25.07505021 33.00290821 25.07505021 33.00290821 26 31 C28.31 31 30.62 31 33 31 C32.30183944 35.15758536 31.01940835 38.92362246 29.5625 42.875 C25.96649919 52.15525418 25.96649919 52.15525418 24.875 61.9375 C24.89304687 62.70964844 24.91109375 63.48179688 24.9296875 64.27734375 C24.95289063 64.84582031 24.97609375 65.41429688 25 66 C26.65 65.34 28.3 64.68 30 64 C30.33 64.66 30.66 65.32 31 66 C30.67 66.66 30.34 67.32 30 68 C23.64096386 68.48915663 23.64096386 68.48915663 20.625 66.1875 C17.94276392 62.57679759 17.88617622 59.67502095 17.9375 55.3125 C17.94652344 54.31863281 17.95554687 53.32476562 17.96484375 52.30078125 C17.97644531 51.54152344 17.98804688 50.78226563 18 50 C9.00430017 56.85557284 9.00430017 56.85557284 5.05078125 66.9921875 C5.00014611 68.99422298 5 70.9973243 5 73 C2.34335221 72.84819155 0.54782138 72.47988575 -1.48046875 70.703125 C-2.875 69.125 -2.875 69.125 -5 66 C-4 63 -4 63 -1.6015625 61.78515625 C1.97284644 59.33244621 2.52681929 56.42960653 3.625 52.4375 C6.45171483 43.04386792 10.22163675 34.16462747 14.21728516 25.21264648 C16.99764877 18.85857454 19.00516161 12.875524 20 6 C18.68 6.66 17.36 7.32 16 8 C16.99 9.485 16.99 9.485 18 11 C17.8125 13.5625 17.8125 13.5625 17 16 C13.7126495 18.191567 12.98467922 18.20804315 9.21875 18.01953125 C7.83236328 17.97602539 7.83236328 17.97602539 6.41796875 17.93164062 C4.4721434 17.8521926 2.52676092 17.76103689 0.58203125 17.65820312 C-2.02581498 17.58727844 -4.42725825 17.56250849 -7 18 C-9.0561065 20.19412178 -9.0561065 20.19412178 -10 23 C-11.18812213 24.24871372 -12.419587 25.45738844 -13.6875 26.625 C-22.72153021 35.51038986 -34.48939558 50.8075512 -35.09765625 64.140625 C-35.08605469 64.83671875 -35.07445312 65.5328125 -35.0625 66.25 C-35.041875 67.4875 -35.02125 68.725 -35 70 C-30.97007218 69.44687265 -26.97977076 68.8441938 -23 68 C-26.49954585 71.61619737 -27.77363581 72.92213561 -32.9375 73.25 C-35.39089305 73.19666537 -36.74145427 73.13344296 -38.9375 72 C-41.42621033 67.31536879 -41.40167175 63.72173871 -40.22265625 58.66796875 C-35.2230965 42.5919433 -27.33654974 27.6148049 -14 17 C-23.779998 14.35555945 -33.62042008 12.19391586 -43.5625 10.25 C-44.67995605 10.02739502 -45.79741211 9.80479004 -46.94873047 9.57543945 C-52.38775831 8.53161458 -57.45998554 7.71385865 -63 8 C-61.38952698 13.27063898 -58.74759791 15.5213309 -53.953125 18.1015625 C-48.92891665 20.50971754 -44.54850121 21.59647264 -39 22 C-39.33 22.99 -39.66 23.98 -40 25 C-49.67610944 24.7976479 -57.75184004 22.7204678 -64.6875 15.625 C-66.92794481 12.74082176 -67 12.08063311 -67 8.1875 C-66 5 -66 5 -64 3 C-54.92918437 1.77837676 -46.34053583 4.05881306 -37.625 6.3125 C-13.08264546 12.5947908 -13.08264546 12.5947908 12 12 C11.93429458 9.57905247 11.93429458 9.57905247 11 7 C8.48954004 5.30871266 8.48954004 5.30871266 5.4375 4.1875 C3.91962891 3.55908203 3.91962891 3.55908203 2.37109375 2.91796875 C1.58863281 2.61503906 0.80617188 2.31210937 0 2 C0 1.34 0 0.68 0 0 Z " fill="#090D3E" transform="translate(221,45)"/>
<path d="M0 0 C9.83050847 -0.76271186 9.83050847 -0.76271186 13.875 1.875 C16.12621879 8.12838552 12.24142118 14.66762804 9.56005859 20.40505981 C8.00478816 23.65863371 6.4114924 26.89274824 4.8125 30.125 C4.15099777 31.47622251 3.49018524 32.8277829 2.83007812 34.1796875 C1.22797584 37.45705421 -0.38338014 40.72976523 -2 44 C0.96683655 41.04746512 3.87593849 38.09452726 6.625 34.9375 C7.19476563 34.28652344 7.76453125 33.63554688 8.3515625 32.96484375 C10.04881567 31.00980612 10.04881567 31.00980612 11.51171875 28.76953125 C12.00285156 28.18558594 12.49398438 27.60164063 13 27 C16.1875 26.75 16.1875 26.75 19 27 C19.495 27.99 19.495 27.99 20 29 C19.13092828 31.28687473 18.209611 33.47023438 17.1875 35.6875 C14.14086994 42.42482205 11.69032019 48.45796788 11.875 55.9375 C11.90207031 57.37416016 11.90207031 57.37416016 11.9296875 58.83984375 C11.95289063 59.55269531 11.97609375 60.26554687 12 61 C14.475 60.505 14.475 60.505 17 60 C17 60.66 17 61.32 17 62 C20.63 60.68 24.26 59.36 28 58 C28.40242559 54.18853318 28.40242559 54.18853318 26.7578125 52.359375 C26.21898437 51.82828125 25.68015625 51.2971875 25.125 50.75 C21.66380977 46.91062746 20.5734024 44.16062159 20 39 C21.81955522 32.93481592 26.62978846 28.93146626 32.00390625 25.8515625 C35.13330488 24.51651573 37.64850456 24.6409112 41 25 C43.4375 26.8125 43.4375 26.8125 45 29 C45 29.99 45 30.98 45 32 C44.43152344 32.02578125 43.86304688 32.0515625 43.27734375 32.078125 C36.4569709 32.57912067 32.61753447 34.51294505 27 38.375 C25.77976929 40.06422075 25.77976929 40.06422075 25.875 42.6875 C27.25602159 46.75384135 29.38997454 49.07874132 32.30859375 52.16796875 C36.02079972 56.18881079 36.02079972 56.18881079 35.9375 59.4375 C34.6001577 63.0929023 33.45023043 64.13687557 30 66 C23.15279684 66.89311346 15.52950496 66.305959 9 64 C5.47617052 61.163747 4.79191542 58.70328547 4.25 54.375 C4.06421791 51.9007203 4 49.48328844 4 47 C2.36493227 48.21574224 0.7422814 49.44819513 -0.875 50.6875 C-2.23238281 51.71423828 -2.23238281 51.71423828 -3.6171875 52.76171875 C-6.78683323 55.73910728 -7.8527978 58.14819632 -8.1953125 62.45703125 C-8.17210937 63.23433594 -8.14890625 64.01164062 -8.125 64.8125 C-8.09792969 65.99779297 -8.09792969 65.99779297 -8.0703125 67.20703125 C-8.04710937 67.79871094 -8.02390625 68.39039062 -8 69 C-12.67802059 68.72482232 -14.74638753 66.66806114 -17.86328125 63.47265625 C-19 62 -19 62 -19 60 C-17.61748047 59.22462891 -17.61748047 59.22462891 -16.20703125 58.43359375 C-11.88297326 55.67385343 -11.08857356 51.78970312 -9.6875 47.0625 C-6.92669766 38.46786411 -3.6648091 30.23715957 -0.02026367 21.98071289 C2.90311257 15.33950134 5.12864277 9.26131029 6 2 C3.69 2.33 1.38 2.66 -1 3 C-0.67 2.01 -0.34 1.02 0 0 Z M-14 60 C-13 62 -13 62 -13 62 Z " fill="#090D3F" transform="translate(327,49)"/>
<path d="M0 0 C3.25 -0.375 3.25 -0.375 6 0 C5.49823729 4.6629328 3.35746659 7.65879565 0.625 11.3125 C-2.80190671 16.05941035 -5.33214389 20.37098561 -7 26 C-7.495 27.485 -7.495 27.485 -8 29 C-8.66 28.67 -9.32 28.34 -10 28 C-10.36517527 21.42684522 -9.13619737 16.20514474 -7 10 C-11.88156998 7.1863173 -16.50363467 7.32169537 -22 8 C-35.99430918 12.14844025 -48.79553439 21.3861122 -56.0703125 34.1796875 C-59.22706796 40.36056165 -59.65363318 46.14706465 -59 53 C-57.36117461 57.74396823 -55.22757242 60.30972664 -51 63 C-43.39694987 66.1306677 -36.25906287 65.04433144 -28.75 62.1875 C-22.46436874 59.45163242 -17.55466443 55.76569289 -12.61328125 51.07421875 C-12.08089844 50.71972656 -11.54851563 50.36523438 -11 50 C-10.01 50.33 -9.02 50.66 -8 51 C-12.09464636 59.70112351 -21.4620606 63.72257125 -30 67 C-35.33044827 68.80831992 -40.0007616 69.33721884 -45.5625 69.3125 C-46.29146484 69.32861328 -47.02042969 69.34472656 -47.77148438 69.36132812 C-53.40103077 69.36639522 -57.34999198 68.13472868 -61.828125 64.52734375 C-66.050767 59.80587316 -67.85436125 55.36259292 -68 49 C-66.63605855 36.40059083 -59.77481307 24.92598678 -50 17 C-46.44901877 14.4380328 -42.80643132 12.16174495 -39 10 C-38.29359375 9.58621094 -37.5871875 9.17242187 -36.859375 8.74609375 C-27.10828427 3.70306782 -14.40439609 2.74862622 -4 6 C-3.46375 5.01 -2.9275 4.02 -2.375 3 C-1.59125 2.01 -0.8075 1.02 0 0 Z " fill="#080D3B" transform="translate(559,49)"/>
<path d="M0 0 C2.43518543 1.44102726 3.34853592 2.6407656 5 5 C4.67 5.99 4.34 6.98 4 8 C1 7 1 7 -0.3125 5.375 C-1.97815817 3.74878694 -1.97815817 3.74878694 -4.625 3.8125 C-13.33099495 6.87572045 -19.57431969 15.19209247 -24 23 C-25.2299475 25.95450023 -26.21353758 28.89909103 -27 32 C-17.00946477 26.85336064 -11.18913433 16.97860333 -5 8 C-0.25 8.875 -0.25 8.875 2 10 C1.37004209 12.74395129 0.57572993 15.04299726 -0.5 17.6875 C-2.52268903 22.982186 -3.82189461 28.53431617 -2 34 C-1.01 34.33 -0.02 34.66 1 35 C1 35.66 1 36.32 1 37 C-5.48780488 37.36723424 -5.48780488 37.36723424 -7.65625 35.8125 C-9.36251771 33.51102262 -9.71242876 31.62638351 -10.1875 28.8125 C-10.34605469 27.91144531 -10.50460937 27.01039062 -10.66796875 26.08203125 C-10.77753906 25.39496094 -10.88710938 24.70789063 -11 24 C-11.53109375 24.68707031 -12.0621875 25.37414062 -12.609375 26.08203125 C-13.66898437 27.43361328 -13.66898437 27.43361328 -14.75 28.8125 C-15.44609375 29.70582031 -16.1421875 30.59914063 -16.859375 31.51953125 C-19.99814017 35.15660403 -21.71826338 36.86508036 -26.5625 37.375 C-30 37 -30 37 -31.875 35.875 C-33.56172093 33.06379845 -33.93856178 31.31766392 -34 28 C-30.88231173 17.65317205 -23.28042591 6.65096102 -14.12890625 0.8046875 C-9.62201226 -0.89883573 -4.71403226 -0.66240835 0 0 Z " fill="#090E3F" transform="translate(399,76)"/>
<path d="M0 0 C3.25 1.75 3.25 1.75 5 4 C5 5.32 5 6.64 5 8 C2 8 2 8 -0.1875 6 C-0.785625 5.34 -1.38375 4.68 -2 4 C-11.34521023 5.90718576 -16.21009265 11.59654497 -21.421875 19.3203125 C-23.80087801 23.35990672 -25.48368392 27.57348722 -27 32 C-16.83023211 27.57836179 -10.31702732 16.73085076 -4 8 C-1.525 8.495 -1.525 8.495 1 9 C2.36141839 12.68182333 1.59097959 14.5945724 0.0625 18.125 C-2.07753664 23.58907982 -2.4537618 28.18932801 -2 34 C-1.01 34.33 -0.02 34.66 1 35 C1 35.66 1 36.32 1 37 C-5.41498559 37.48414986 -5.41498559 37.48414986 -7.8125 35.5 C-9.44222964 32.06899023 -10.19541207 28.71348276 -11 25 C-11.69867188 25.78246094 -12.39734375 26.56492187 -13.1171875 27.37109375 C-14.0362998 28.39337172 -14.95557934 29.41549935 -15.875 30.4375 C-16.33519531 30.95376953 -16.79539062 31.47003906 -17.26953125 32.00195312 C-21.64470109 36.8526849 -21.64470109 36.8526849 -25.875 37.3125 C-29 37 -29 37 -31.375 35.4375 C-33.70528532 31.94207201 -33.60479591 30.1663718 -33 26 C-27.29141061 10.74341596 -16.97280568 -1.64981999 0 0 Z " fill="#090E3D" transform="translate(285,76)"/>
<path d="M0 0 C3.25 1.75 3.25 1.75 5 4 C5 5.32 5 6.64 5 8 C2 8 2 8 -0.1875 6 C-0.785625 5.34 -1.38375 4.68 -2 4 C-11.34521023 5.90718576 -16.21009265 11.59654497 -21.421875 19.3203125 C-23.80087801 23.35990672 -25.48368392 27.57348722 -27 32 C-16.83023211 27.57836179 -10.31702732 16.73085076 -4 8 C-1.525 8.495 -1.525 8.495 1 9 C2.36141839 12.68182333 1.59097959 14.5945724 0.0625 18.125 C-2.07753664 23.58907982 -2.4537618 28.18932801 -2 34 C-1.01 34.33 -0.02 34.66 1 35 C1 35.66 1 36.32 1 37 C-5.5 37.36792453 -5.5 37.36792453 -7.65625 35.78125 C-9.27707257 33.63271776 -9.69115566 31.94694301 -10.1875 29.3125 C-10.34605469 28.50425781 -10.50460937 27.69601563 -10.66796875 26.86328125 C-10.77753906 26.24839844 -10.88710938 25.63351563 -11 25 C-11.69867188 25.78246094 -12.39734375 26.56492187 -13.1171875 27.37109375 C-14.0362998 28.39337172 -14.95557934 29.41549935 -15.875 30.4375 C-16.33519531 30.95376953 -16.79539062 31.47003906 -17.26953125 32.00195312 C-21.64470109 36.8526849 -21.64470109 36.8526849 -25.875 37.3125 C-29 37 -29 37 -31.375 35.4375 C-33.70528532 31.94207201 -33.60479591 30.1663718 -33 26 C-27.29141061 10.74341596 -16.97280568 -1.64981999 0 0 Z " fill="#090D3F" transform="translate(464,76)"/>
<path d="M0 0 C3.64531015 0.76018783 5.24717187 2.53917187 7.37890625 5.49609375 C7.70890625 6.48609375 8.03890625 7.47609375 8.37890625 8.49609375 C10.85390625 8.99109375 10.85390625 8.99109375 13.37890625 9.49609375 C13.37890625 10.81609375 13.37890625 12.13609375 13.37890625 13.49609375 C12.38890625 13.49609375 11.39890625 13.49609375 10.37890625 13.49609375 C10.44078125 14.60984375 10.50265625 15.72359375 10.56640625 16.87109375 C10.52007238 25.61275141 7.52172286 33.24839978 1.37890625 39.49609375 C-2.98230806 42.46543116 -6.38674812 43.06711327 -11.62109375 42.49609375 C-14.41010948 41.2565312 -16.06459962 40.21158621 -17.93359375 37.80859375 C-19.9376702 31.06760934 -18.38478486 26.08292097 -15.59375 19.890625 C-14.12060217 16.26395986 -13.649197 12.8895393 -13.37109375 8.99609375 C-11.73257501 1.34967295 -7.22216526 -0.35518846 0 0 Z M-6.80859375 4.55859375 C-9.1770859 7.09043019 -9.31946306 9.10274845 -9.62109375 12.49609375 C-9.08484375 12.22796875 -8.54859375 11.95984375 -7.99609375 11.68359375 C-5.20442708 10.28776042 -2.41276042 8.89192708 0.37890625 7.49609375 C0.04890625 6.50609375 -0.28109375 5.51609375 -0.62109375 4.49609375 C-3.22032233 3.24129375 -4.19944505 3.29129295 -6.80859375 4.55859375 Z M-4.62109375 17.49609375 C-3.63109375 17.82609375 -2.64109375 18.15609375 -1.62109375 18.49609375 C-1.62109375 19.15609375 -1.62109375 19.81609375 -1.62109375 20.49609375 C-2.36359375 20.39296875 -3.10609375 20.28984375 -3.87109375 20.18359375 C-6.79526089 20.23206873 -6.79526089 20.23206873 -8.80859375 22.62109375 C-12.31745727 28.18687727 -13.01714679 32.02348422 -11.62109375 38.49609375 C-10.48067576 39.86279684 -10.48067576 39.86279684 -7.43359375 39.62109375 C-2.51338475 38.1692288 -1.37603142 36.11896804 1.15625 31.82421875 C4.42486325 25.60027787 4.62452894 20.40082044 4.37890625 13.49609375 C0.37985656 13.49609375 -1.42309797 15.22196342 -4.62109375 17.49609375 Z " fill="#090D3E" transform="translate(602.62109375,70.50390625)"/>
<path d="M0 0 C2.82424288 2.19022918 4.41508603 3.83017207 6 7 C7.97522846 8.04808041 9.97481509 9.0520411 12 10 C11.67 10.99 11.34 11.98 11 13 C10.01 13 9.02 13 8 13 C7.99742187 13.72703125 7.99484375 14.4540625 7.9921875 15.203125 C7.64239003 24.29785913 5.37335367 32.81958841 -1.390625 39.28515625 C-5.42606385 41.93718867 -9.24115602 42.21133024 -14 42 C-17.72203271 40.44915304 -18.75149149 39.37276276 -21 36 C-21.98178158 29.67550006 -20.87037351 24.63706968 -17.97265625 19.0078125 C-16.34524255 15.64841233 -15.98289236 13.31364014 -16.1875 9.5625 C-15.96480325 5.33126181 -14.94919928 3.94919928 -12 1 C-8.28546768 -0.85726616 -4.04420575 -0.58501089 0 0 Z M-7 3 C-9.64573501 5.22877725 -9.64573501 5.22877725 -12 8 C-11.67 9.32 -11.34 10.64 -11 12 C-8.03 10.35 -5.06 8.7 -2 7 C-2 6.34 -2 5.68 -2 5 C-4.475 4.01 -4.475 4.01 -7 3 Z M-7 17 C-6.01 17.33 -5.02 17.66 -4 18 C-4 18.66 -4 19.32 -4 20 C-5.98 20 -7.96 20 -10 20 C-14.4572025 27.53061488 -14.4572025 27.53061488 -15 36 C-13.36311356 39.16299902 -13.36311356 39.16299902 -10.75 39.625 C-6.32163763 38.61855401 -4.41314838 35.70236463 -2 32 C1.43649603 25.57110896 2.46731366 20.24336166 2 13 C-1.99904969 13 -3.80200422 14.72586967 -7 17 Z " fill="#080D3E" transform="translate(635,71)"/>
<path d="M0 0 C2.02903697 4.05807395 1.0467948 9.60128877 1 14 C6.94 13.505 6.94 13.505 13 13 C9.0069355 17.76591569 5.04282896 19.60811243 -1 21 C-1.99 21 -2.98 21 -4 21 C-4.25652344 21.8146875 -4.51304687 22.629375 -4.77734375 23.46875 C-6.45749836 28.32133711 -8.48779329 33.0091319 -10.52148438 37.72265625 C-12.24757786 41.8198378 -13.48492976 45.54076173 -14 50 C-12.02 49.505 -12.02 49.505 -10 49 C-10 49.99 -10 50.98 -10 52 C-16.0546875 52.1953125 -16.0546875 52.1953125 -18 52 C-20.34174569 49.65825431 -20.30852015 49.14327384 -20.34765625 45.95703125 C-20.23020552 40.67174829 -18.5531713 36.47093206 -16.4375 31.6875 C-15.75937291 30.13329912 -15.09096867 28.57481022 -14.43359375 27.01171875 C-14.13509521 26.33584717 -13.83659668 25.65997559 -13.52905273 24.96362305 C-12.89262192 22.60145735 -13.17915372 21.2806066 -14 19 C-14.33 18.67 -14.66 18.34 -15 18 C-15.04063832 16.33382885 -15.042721 14.66611905 -15 13 C-12.03 13.495 -12.03 13.495 -9 14 C-7.68 10.04 -6.36 6.08 -5 2 C-6.32 2 -7.64 2 -9 2 C-9 1.34 -9 0.68 -9 0 C-5.88173308 -1.55913346 -3.32926126 -0.66585225 0 0 Z " fill="#080D40" transform="translate(312,61)"/>
<path d="M0 0 C7.28358209 -0.35820896 7.28358209 -0.35820896 10 1 C11.63983879 4.27967758 11.17845638 7.37138689 11 11 C12.06486855 10.10698344 13.12675041 9.2104053 14.1875 8.3125 C14.83203125 7.76980469 15.4765625 7.22710937 16.140625 6.66796875 C18.19839983 4.89806003 18.19839983 4.89806003 20.4375 2.125 C24.09074546 -0.90452063 26.35782127 -0.39340498 31 0 C30.6390625 0.67546875 30.278125 1.3509375 29.90625 2.046875 C29.4421875 2.93890625 28.978125 3.8309375 28.5 4.75 C28.0359375 5.63171875 27.571875 6.5134375 27.09375 7.421875 C25.73963344 10.14696472 25.73963344 10.14696472 26 14 C26.66 14.33 27.32 14.66 28 15 C28 15.66 28 16.32 28 17 C22.52887538 17.36474164 22.52887538 17.36474164 20.1875 15.75 C18.8865605 13.832826 18.50475603 12.24130199 18 10 C8.99499992 17.56633143 4.82546977 27.79726021 2 39 C0.02 39 -1.96 39 -4 39 C-5.20358285 35.38925145 -4.67982895 34.15108971 -3.6015625 30.5546875 C-3.28703125 29.47703125 -2.9725 28.399375 -2.6484375 27.2890625 C-2.14183594 25.59910156 -2.14183594 25.59910156 -1.625 23.875 C0.56534364 16.55103845 2.43465207 9.64027348 3 2 C2.01 2 1.02 2 0 2 C0 1.34 0 0.68 0 0 Z " fill="#080D3F" transform="translate(557,74)"/>
<path d="M0 0 C7.28358209 -0.35820896 7.28358209 -0.35820896 10 1 C11.63983879 4.27967758 11.17845638 7.37138689 11 11 C12.06486855 10.10698344 13.12675041 9.2104053 14.1875 8.3125 C14.83203125 7.76980469 15.4765625 7.22710937 16.140625 6.66796875 C18.19839983 4.89806003 18.19839983 4.89806003 20.4375 2.125 C24.09074546 -0.90452063 26.35782127 -0.39340498 31 0 C30.6390625 0.67546875 30.278125 1.3509375 29.90625 2.046875 C29.4421875 2.93890625 28.978125 3.8309375 28.5 4.75 C28.0359375 5.63171875 27.571875 6.5134375 27.09375 7.421875 C25.73963344 10.14696472 25.73963344 10.14696472 26 14 C26.66 14.33 27.32 14.66 28 15 C28 15.66 28 16.32 28 17 C22.52887538 17.36474164 22.52887538 17.36474164 20.1875 15.75 C18.8865605 13.832826 18.50475603 12.24130199 18 10 C8.99499992 17.56633143 4.82546977 27.79726021 2 39 C0.02 39 -1.96 39 -4 39 C-5.20358285 35.38925145 -4.67982895 34.15108971 -3.6015625 30.5546875 C-3.28703125 29.47703125 -2.9725 28.399375 -2.6484375 27.2890625 C-2.14183594 25.59910156 -2.14183594 25.59910156 -1.625 23.875 C0.56534364 16.55103845 2.43465207 9.64027348 3 2 C2.01 2 1.02 2 0 2 C0 1.34 0 0.68 0 0 Z " fill="#090E3E" transform="translate(408,74)"/>
<path d="M0 0 C2.9375 2.375 2.9375 2.375 5 5 C5 5.66 5 6.32 5 7 C4.3709375 7.01417969 3.741875 7.02835937 3.09375 7.04296875 C-3.3703105 7.40316489 -8.0093262 8.7677129 -13 13 C-15.21425708 15.66206865 -15.21425708 15.66206865 -14.875 17.8828125 C-13.33163832 21.61719656 -10.45364325 24.35817072 -7.8125 27.3671875 C-5.75323527 30.35844704 -5.17477006 32.38974997 -5 36 C-6.84141919 38.34939689 -8.3399894 39.6699947 -11 41 C-12.83128771 41.09608608 -14.66619959 41.12982579 -16.5 41.125 C-17.4796875 41.12757812 -18.459375 41.13015625 -19.46875 41.1328125 C-22 41 -22 41 -24 40 C-24 39.01 -24 38.02 -24 37 C-20.04 35.68 -16.08 34.36 -12 33 C-12.96842962 29.12628152 -13.44202282 28.18609568 -16 25.4375 C-19.51136864 21.64758529 -20.48359551 18.38449468 -20.40625 13.125 C-19.50679812 8.42017481 -15.93465106 5.49736692 -12.2890625 2.67578125 C-8.16410543 0.01602387 -4.82002085 -0.80333681 0 0 Z " fill="#080D3D" transform="translate(666,74)"/>
<path d="M0 0 C3.78611227 0.54087318 5.55400767 2.11722332 8 5 C8 5.66 8 6.32 8 7 C7.34773437 7.04898438 6.69546875 7.09796875 6.0234375 7.1484375 C1.06720147 7.57242229 -3.33019451 8.15665573 -8 10 C-8.66 9.34 -9.32 8.68 -10 8 C-6.535 7.505 -6.535 7.505 -3 7 C-2.67 6.01 -2.34 5.02 -2 4 C-0.68 4 0.64 4 2 4 C1.34 2.68 0.68 1.36 0 0 Z " fill="#050933" transform="translate(663,74)"/>
<path d="M0 0 C1.31625194 2.63250388 0.74813658 3.80179056 0.0625 6.625 C-0.13214844 7.44226563 -0.32679688 8.25953125 -0.52734375 9.1015625 C-0.76130859 10.04128906 -0.76130859 10.04128906 -1 11 C0.32 10.67 1.64 10.34 3 10 C3 10.99 3 11.98 3 13 C-3.0546875 13.1953125 -3.0546875 13.1953125 -5 13 C-7 11 -7 11 -7.1953125 8.8359375 C-7.17210937 8.02382812 -7.14890625 7.21171875 -7.125 6.375 C-7.10695313 5.55773437 -7.08890625 4.74046875 -7.0703125 3.8984375 C-7.04710937 3.27195312 -7.02390625 2.64546875 -7 2 C-6.67 2 -6.34 2 -6 2 C-6 3.98 -6 5.96 -6 8 C-5.01 7.67 -4.02 7.34 -3 7 C-2.814375 5.5459375 -2.814375 5.5459375 -2.625 4.0625 C-2.41875 3.051875 -2.2125 2.04125 -2 1 C-1.34 0.67 -0.68 0.34 0 0 Z " fill="#080C36" transform="translate(299,100)"/>
<path d="M0 0 C-3.9930645 4.76591569 -7.95717104 6.60811243 -14 8 C-14.99 8 -15.98 8 -17 8 C-17.33 8.66 -17.66 9.32 -18 10 C-18.33 9.01 -18.66 8.02 -19 7 C-17.72125 6.7525 -16.4425 6.505 -15.125 6.25 C-12.92836287 5.76034987 -12.92836287 5.76034987 -11 5 C-9.71563266 3.0162233 -9.71563266 3.0162233 -9 1 C-6.05528957 -0.21850087 -3.15451555 -0.08762543 0 0 Z " fill="#0A0C35" transform="translate(325,74)"/>
<path d="M0 0 C7.26153846 0.36923077 7.26153846 0.36923077 11 3.5625 C11.99 4.7690625 11.99 4.7690625 13 6 C12.67 6.99 12.34 7.98 12 9 C11.60167969 8.55011719 11.20335937 8.10023437 10.79296875 7.63671875 C8.74806176 5.77001716 6.85837469 4.88250531 4.3125 3.8125 C3.50425781 3.46832031 2.69601563 3.12414063 1.86328125 2.76953125 C1.24839844 2.51558594 0.63351563 2.26164062 0 2 C0 1.34 0 0.68 0 0 Z " fill="#0B0D31" transform="translate(221,45)"/>
<path d="M0 0 C1.32 0 2.64 0 4 0 C4.33 1.98 4.66 3.96 5 6 C6.65 5.67 8.3 5.34 10 5 C10 6.32 10 7.64 10 9 C7.33289346 8.84759391 5.5494129 8.50635081 3.5546875 6.66796875 C0 2.49375 0 2.49375 0 0 Z " fill="#0C1038" transform="translate(216,109)"/>
<path d="M0 0 C0.99 0.33 1.98 0.66 3 1 C3.33 1.99 3.66 2.98 4 4 C4.99 4.33 5.98 4.66 7 5 C7 5.66 7 6.32 7 7 C0.47692308 7.36923077 0.47692308 7.36923077 -1.9375 5.5 C-2.4634375 4.7575 -2.4634375 4.7575 -3 4 C-2.01 2.68 -1.02 1.36 0 0 Z " fill="#090F35" transform="translate(393,106)"/>
<path d="M0 0 C0.928125 0.0825 1.85625 0.165 2.8125 0.25 C3.1425 0.91 3.4725 1.57 3.8125 2.25 C2.8225 3.57 1.8325 4.89 0.8125 6.25 C0.8125 4.93 0.8125 3.61 0.8125 2.25 C-0.1775 2.25 -1.1675 2.25 -2.1875 2.25 C-2.249375 2.86875 -2.31125 3.4875 -2.375 4.125 C-3.1875 6.25 -3.1875 6.25 -5.75 7.5 C-6.554375 7.7475 -7.35875 7.995 -8.1875 8.25 C-4.52180233 0.35465116 -4.52180233 0.35465116 0 0 Z " fill="#0C1038" transform="translate(343.1875,75.75)"/>
<path d="M0 0 C0 0.66 0 1.32 0 2 C-0.99 2 -1.98 2 -3 2 C-3.103125 3.11375 -3.20625 4.2275 -3.3125 5.375 C-3.539375 6.57125 -3.76625 7.7675 -4 9 C-4.99 9.66 -5.98 10.32 -7 11 C-6.34 8.03 -5.68 5.06 -5 2 C-6.32 2 -7.64 2 -9 2 C-9 1.34 -9 0.68 -9 0 C-5.93109813 -1.53445094 -3.29905734 -0.54984289 0 0 Z " fill="#111437" transform="translate(312,61)"/>
<path d="M0 0 C1 3 1 3 0.0625 4.9375 C-0.288125 5.618125 -0.63875 6.29875 -1 7 C-1 8.32 -1 9.64 -1 11 C-1.99 11 -2.98 11 -4 11 C-4.33 9.68 -4.66 8.36 -5 7 C-4.34 7 -3.68 7 -3 7 C-3.061875 6.21625 -3.12375 5.4325 -3.1875 4.625 C-3.125625 3.75875 -3.06375 2.8925 -3 2 C-2.01 1.34 -1.02 0.68 0 0 Z " fill="#070C49" transform="translate(433,76)"/>
<path d="M0 0 C1.65 0.33 3.3 0.66 5 1 C5.6875 2.75 5.6875 2.75 6 5 C4.5625 7.25 4.5625 7.25 3 9 C3 6.69 3 4.38 3 2 C1.35 2.66 -0.3 3.32 -2 4 C-1.34 2.68 -0.68 1.36 0 0 Z " fill="#0F1239" transform="translate(281,84)"/>
<path d="M0 0 C2 1.25 2 1.25 4 3 C4 4.32 4 5.64 4 7 C1 7 1 7 -1.0625 5.125 C-1.701875 4.42375 -2.34125 3.7225 -3 3 C-3.66 2.34 -4.32 1.68 -5 1 C-2.525 1.495 -2.525 1.495 0 2 C0 1.34 0 0.68 0 0 Z " fill="#0A0F30" transform="translate(465,77)"/>
<path d="M0 0 C1.9375 0.75 1.9375 0.75 4 2 C4.75 4.125 4.75 4.125 5 6 C3.68 6 2.36 6 1 6 C-0.75 4 -0.75 4 -2 2 C-1.34 1.34 -0.68 0.68 0 0 Z " fill="#0E123C" transform="translate(399,77)"/>
<path d="M0 0 C0.33 0.66 0.66 1.32 1 2 C3.11846285 2.68729254 3.11846285 2.68729254 5.5625 3.125 C6.80193359 3.37636719 6.80193359 3.37636719 8.06640625 3.6328125 C8.70449219 3.75398438 9.34257812 3.87515625 10 4 C10 4.66 10 5.32 10 6 C3.539801 6.36567164 3.539801 6.36567164 1.0625 4.6875 C0 3 0 3 0 0 Z " fill="#0B0F32" transform="translate(455,107)"/>
<path d="M0 0 C0.66 0 1.32 0 2 0 C2.33 1.98 2.66 3.96 3 6 C1.68 6.33 0.36 6.66 -1 7 C-1.625 4.625 -1.625 4.625 -2 2 C-1.34 1.34 -0.68 0.68 0 0 Z " fill="#080C4B" transform="translate(255,103)"/>
<path d="M0 0 C1.32 0.33 2.64 0.66 4 1 C1.88929795 4.16605307 0.26460973 5.19587357 -3 7 C-3 4 -3 4 -1 2 C-0.67 1.34 -0.34 0.68 0 0 Z " fill="#0F1343" transform="translate(574,80)"/>
<path d="M0 0 C0.66 0 1.32 0 2 0 C2.12375 1.03125 2.2475 2.0625 2.375 3.125 C2.93889814 6.62116846 3.78682059 9.68397627 5 13 C2.03472242 10.5546615 1.44417786 8.55397653 0.8125 4.8125 C0.65394531 3.91144531 0.49539063 3.01039062 0.33203125 2.08203125 C0.22246094 1.39496094 0.11289062 0.70789063 0 0 Z " fill="#090D32" transform="translate(491,98)"/>
<path d="M0 0 C1.65 0 3.3 0 5 0 C5 1.98 5 3.96 5 6 C4.01 6.495 4.01 6.495 3 7 C2.67 6.01 2.34 5.02 2 4 C1.01 4.495 1.01 4.495 0 5 C0 3.35 0 1.7 0 0 Z " fill="#13153A" transform="translate(589,78)"/>
<path d="M0 0 C0.66 0.33 1.32 0.66 2 1 C2 2.32 2 3.64 2 5 C0.35 5.33 -1.3 5.66 -3 6 C-1.125 1.125 -1.125 1.125 0 0 Z " fill="#050C49" transform="translate(266,83)"/>
<path d="M0 0 C0.99 0.33 1.98 0.66 3 1 C0.525 4.465 0.525 4.465 -2 8 C-2.33 6.68 -2.66 5.36 -3 4 C-2.01 3.67 -1.02 3.34 0 3 C0 2.01 0 1.02 0 0 Z " fill="#060B32" transform="translate(445,87)"/>
<path d="M0 0 C1.32 0 2.64 0 4 0 C2.25 4.875 2.25 4.875 0 6 C-0.38218767 4.34385343 -0.71395102 2.67542976 -1 1 C-0.67 0.67 -0.34 0.34 0 0 Z " fill="#050A38" transform="translate(502,77)"/>
<path d="M0 0 C1.65 0 3.3 0 5 0 C4.071875 1.1446875 4.071875 1.1446875 3.125 2.3125 C0.94402948 4.99625809 0.94402948 4.99625809 -1 8 C-0.67 5.36 -0.34 2.72 0 0 Z " fill="#040B37" transform="translate(319,101)"/>
<path d="M0 0 C1.65 0.33 3.3 0.66 5 1 C3.35 2.32 1.7 3.64 0 5 C-0.66 4.01 -1.32 3.02 -2 2 C-1.34 2 -0.68 2 0 2 C0 1.34 0 0.68 0 0 Z " fill="#060A38" transform="translate(354,82)"/>
<path d="M0 0 C0.33 0.66 0.66 1.32 1 2 C-1.31 2.66 -3.62 3.32 -6 4 C-6.66 3.01 -7.32 2.02 -8 1 C-5.36 0.67 -2.72 0.34 0 0 Z " fill="#181C46" transform="translate(243,48)"/>
<path d="" fill="#FFFFFF" transform="translate(0,0)"/>
<path d="" fill="#FFFFFF" transform="translate(0,0)"/>
<path d="" fill="#FFFFFF" transform="translate(0,0)"/>
<path d="" fill="#FFFFFF" transform="translate(0,0)"/>
<path d="" fill="#FFFFFF" transform="translate(0,0)"/>
<path d="" fill="#FFFFFF" transform="translate(0,0)"/>
<path d="" fill="#FFFFFF" transform="translate(0,0)"/>
<path d="" fill="#FFFFFF" transform="translate(0,0)"/>
<path d="" fill="#FFFFFF" transform="translate(0,0)"/>
<path d="" fill="#FFFFFF" transform="translate(0,0)"/>
<path d="" fill="#FFFFFF" transform="translate(0,0)"/>
<path d="" fill="#FFFFFF" transform="translate(0,0)"/>
<path d="" fill="#FFFFFF" transform="translate(0,0)"/>
<path d="" fill="#FFFFFF" transform="translate(0,0)"/>
<path d="" fill="#FFFFFF" transform="translate(0,0)"/>
<path d="" fill="#FFFFFF" transform="translate(0,0)"/>
<path d="" fill="#FFFFFF" transform="translate(0,0)"/>
<path d="" fill="#FFFFFF" transform="translate(0,0)"/>
<path d="" fill="#FFFFFF" transform="translate(0,0)"/>
<path d="" fill="#FFFFFF" transform="translate(0,0)"/>
<path d="" fill="#FFFFFF" transform="translate(0,0)"/>
<path d="" fill="#FFFFFF" transform="translate(0,0)"/>
<path d="" fill="#FFFFFF" transform="translate(0,0)"/>
<path d="" fill="#FFFFFF" transform="translate(0,0)"/>
<path d="" fill="#FFFFFF" transform="translate(0,0)"/>
<path d="" fill="#FFFFFF" transform="translate(0,0)"/>
<path d="" fill="#FFFFFF" transform="translate(0,0)"/>
<path d="" fill="#FFFFFF" transform="translate(0,0)"/>
<path d="" fill="#FFFFFF" transform="translate(0,0)"/>
<path d="" fill="#FFFFFF" transform="translate(0,0)"/>
<path d="" fill="#FFFFFF" transform="translate(0,0)"/>
<path d="" fill="#FFFFFF" transform="translate(0,0)"/>
<path d="" fill="#FFFFFF" transform="translate(0,0)"/>
<path d="" fill="#FFFFFF" transform="translate(0,0)"/>
<path d="" fill="#FFFFFF" transform="translate(0,0)"/>
<path d="" fill="#FFFFFF" transform="translate(0,0)"/>
<path d="" fill="#FFFFFF" transform="translate(0,0)"/>
<path d="" fill="#FFFFFF" transform="translate(0,0)"/>
<path d="" fill="#FFFFFF" transform="translate(0,0)"/>
<path d="" fill="#FFFFFF" transform="translate(0,0)"/>
<path d="" fill="#FFFFFF" transform="translate(0,0)"/>
<path d="" fill="#FFFFFF" transform="translate(0,0)"/>
<path d="" fill="#FFFFFF" transform="translate(0,0)"/>
<path d="" fill="#FFFFFF" transform="translate(0,0)"/>
<path d="" fill="#FFFFFF" transform="translate(0,0)"/>
<path d="" fill="#FFFFFF" transform="translate(0,0)"/>
<path d="" fill="#FFFFFF" transform="translate(0,0)"/>
<path d="" fill="#FFFFFF" transform="translate(0,0)"/>
<path d="" fill="#FFFFFF" transform="translate(0,0)"/>
<path d="" fill="#FFFFFF" transform="translate(0,0)"/>
<path d="" fill="#FFFFFF" transform="translate(0,0)"/>
<path d="" fill="#FFFFFF" transform="translate(0,0)"/>
<path d="" fill="#FFFFFF" transform="translate(0,0)"/>
<path d="" fill="#FFFFFF" transform="translate(0,0)"/>
<path d="" fill="#FFFFFF" transform="translate(0,0)"/>
<path d="" fill="#FFFFFF" transform="translate(0,0)"/>
<path d="" fill="#FFFFFF" transform="translate(0,0)"/>
<path d="" fill="#FFFFFF" transform="translate(0,0)"/>
<path d="" fill="#FFFFFF" transform="translate(0,0)"/>
<path d="" fill="#FFFFFF" transform="translate(0,0)"/>
<path d="" fill="#FFFFFF" transform="translate(0,0)"/>
<path d="" fill="#FFFFFF" transform="translate(0,0)"/>
<path d="" fill="#FFFFFF" transform="translate(0,0)"/>
<path d="" fill="#FFFFFF" transform="translate(0,0)"/>
<path d="" fill="#FFFFFF" transform="translate(0,0)"/>
<path d="" fill="#FFFFFF" transform="translate(0,0)"/>
<path d="" fill="#FFFFFF" transform="translate(0,0)"/>
<path d="" fill="#FFFFFF" transform="translate(0,0)"/>
<path d="" fill="#FFFFFF" transform="translate(0,0)"/>
<path d="" fill="#FFFFFF" transform="translate(0,0)"/>
<path d="" fill="#FFFFFF" transform="translate(0,0)"/>
<path d="" fill="#FFFFFF" transform="translate(0,0)"/>
<path d="" fill="#FFFFFF" transform="translate(0,0)"/>
<path d="" fill="#FFFFFF" transform="translate(0,0)"/>
<path d="" fill="#FFFFFF" transform="translate(0,0)"/>
</svg>
